# xmcd CD database file
#
# Track frame offsets:
#	150
#	19263
#	37840
#	56743
#	74196
#	93739
#	112046
#	126315
#	141652
#	153170
#	167020
#	189907
#	204322
#	214445
#	224482
#	251652
#	270521
#	282320
#
# Disc length: 3966 seconds
#
# Revision: 0
# Processed by: cddbd v1.5.2PL0 Copyright (c) Steve Scherf et al.
# Submitted via: CDex 1.70beta2
#
DISCID=230f7c12
DTITLE=Studio "A" Big Band - Premier Jazz Series
DYEAR=2000
DGENRE=Jazz
TTITLE0=Struttrin' With Some Barbecue - arr. Alan Baylock
TTITLE1=Latin Hunny - by Victor Lopez
TTITLE2=In Your Own Sweet Way - arr. Dave Wolpe
TTITLE3=Woodchoppers Ball - arr. Mike Carubia
TTITLE4=Chimps On The Loose - by Victor Lopez
TTITLE5=All The Way - arr. Mike Lewis
TTITLE6=Poor Butterfly - arr. Dave Wolpe
TTITLE7=Chattanooga Choo Choo - arr. Jeff Hest
TTITLE8=Stumbling - arr. Dave Wolpe
TTITLE9=Hot To Trot - by Victor Lopez
TTITLE10=A Salute To Duke Ellington - arr. Jeff Hest
TTITLE11=Sleigh Ride - arr. Mike Lewis
TTITLE12=We're Off To See The Wizard - arr. Jack Cooper
TTITLE13=Nice Work If You Can Get It - arr. Dave Wolpe
TTITLE14=I'll Newer Stop Loving You - Arr. Frank Mantooth
TTITLE15=The Man I Love - arr. Dave Wolpe
TTITLE16=The Lady Is A Tramp - arr. Dave Wolpe
TTITLE17=I'll Never Smile Again - Dream - arr. Mike Carubia
EXTD=YEAR: 2000
EXTT0=
EXTT1=
EXTT2=
EXTT3=
EXTT4=
EXTT5=
EXTT6=
EXTT7=
EXTT8=
EXTT9=
EXTT10=
EXTT11=
EXTT12=
EXTT13=
EXTT14=
EXTT15=
EXTT16=
EXTT17=
PLAYORDER=
